<svg width="842px" height="328px" viewBox="0 0 842 328" version="1.1" xmlns="http://www.w3.org/2000/svg" xmlns:xlink="http://www.w3.org/1999/xlink">
    <g id="03-–-Seller-Dashboard" stroke="none" stroke-width="1" fill="none" fill-rule="evenodd">
        <g id="Dashboard-Home-Copy" transform="translate(-429.000000, -171.000000)" fill="#F2F2F7">
            <g id="Group-6" transform="translate(429.000000, 171.000000)">
                <rect id="Rectangle-6" x="300" y="128" width="542" height="200" rx="8"></rect>
                <rect id="Rectangle-6-Copy" x="300" y="0" width="296" height="33" rx="8"></rect>
                <rect id="Rectangle-6-Copy-3" x="0" y="0" width="194" height="33" rx="8"></rect>
                <rect id="Rectangle-6-Copy-5" x="713" y="0" width="129" height="33" rx="8"></rect>
                <rect id="Rectangle-6-Copy-2" x="300" y="40" width="248" height="20" rx="8"></rect>
                <rect id="Rectangle-6-Copy-4" x="0" y="40" width="162" height="20" rx="8"></rect>
                <rect id="Rectangle-6-Copy-6" x="45" y="79" width="162" height="20" rx="8"></rect>
                <rect id="Rectangle-6-Copy-8" x="45" y="125" width="162" height="20" rx="8"></rect>
                <rect id="Rectangle-6-Copy-10" x="45" y="174" width="162" height="20" rx="8"></rect>
                <rect id="Rectangle-6-Copy-7" x="0" y="74" width="30" height="30" rx="8"></rect>
                <rect id="Rectangle-6-Copy-9" x="0" y="120" width="30" height="30" rx="8"></rect>
                <rect id="Rectangle-6-Copy-11" x="0" y="169" width="30" height="30" rx="8"></rect>
            </g>
        </g>
    </g>
</svg>
